<svg width="24" height="24" viewBox="0 0 24 24" fill="none" xmlns="http://www.w3.org/2000/svg">
  <path fill="#181513" d="M12 0.75C5.79 0.75 0.75 5.79 0.75 12C0.75 16.98 3.98 21.2 8.46 22.69C9.02 22.79 9.23 22.45 9.23 22.15C9.23 21.88 9.22 21.18 9.22 20.25C6.08 20.93 5.42 18.74 5.42 18.74C4.91 17.44 4.17 17.09 4.17 17.09C3.15 16.39 4.25 16.4 4.25 16.4C5.38 16.48 5.98 17.56 5.98 17.56C6.98 19.28 8.61 18.78 9.25 18.49C9.35 17.76 9.64 17.26 9.96 16.98C7.45 16.7 4.81 15.73 4.81 11.4C4.81 10.17 5.25 9.16 5.97 8.38C5.85 8.09 5.47 6.95 6.08 5.39C6.08 5.39 7.02 5.09 9.18 6.54C10.08 6.29 11.04 6.17 12 6.17C12.96 6.17 13.92 6.29 14.82 6.54C16.97 5.09 17.92 5.39 17.92 5.39C18.53 6.95 18.15 8.09 18.03 8.38C18.75 9.16 19.19 10.17 19.19 11.4C19.19 15.74 16.55 16.69 14.03 16.98C14.43 17.33 14.79 18.02 14.79 19.07C14.79 20.58 14.78 21.79 14.78 22.15C14.78 22.45 14.98 22.8 15.55 22.69C20.02 21.2 23.25 16.98 23.25 12C23.25 5.79 18.21 0.75 12 0.75Z"/>
</svg>
