<svg width="1200" height="675" viewBox="0 0 1200 675" fill="none" xmlns="http://www.w3.org/2000/svg" role="img" aria-labelledby="title desc">
  <title id="title">Research writing cover</title>
  <desc id="desc">Abstract notebook, graph, and margin notes.</desc>
  <rect width="1200" height="675" fill="#FBFAF7"/>
  <rect x="120" y="88" width="520" height="500" rx="8" fill="#FFFDF9" stroke="#DED7CD" stroke-width="3"/>
  <rect x="690" y="88" width="390" height="500" rx="8" fill="#F1EDE6" stroke="#DED7CD" stroke-width="3"/>
  <path d="M185 184H555M185 246H510M185 308H556M185 370H480M185 432H530" stroke="#6D6259" stroke-width="12" stroke-linecap="round"/>
  <path d="M744 460L818 374L894 410L1014 250" stroke="#0F766E" stroke-width="18" stroke-linecap="round" stroke-linejoin="round"/>
  <circle cx="744" cy="460" r="16" fill="#0F766E"/>
  <circle cx="818" cy="374" r="16" fill="#0F766E"/>
  <circle cx="894" cy="410" r="16" fill="#0F766E"/>
  <circle cx="1014" cy="250" r="16" fill="#0F766E"/>
  <path d="M760 186H1008M760 238H952" stroke="#9F1239" stroke-width="12" stroke-linecap="round"/>
  <path d="M0 675C151 583 306 544 465 558C666 576 778 660 980 633C1067 621 1142 591 1200 552V675H0Z" fill="#A16207" fill-opacity=".16"/>
</svg>
